<svg width="24" height="24" viewBox="0 0 24 24" fill="none" xmlns="http://www.w3.org/2000/svg">
<path d="M13.5759 1.53754C13.5599 1.48201 13.5599 1.48201 13.5599 1.43502C13.5451 1.07082 13.6663 0.715225 13.8968 0.446355C14.1273 0.177486 14.4483 0.0173303 14.7893 0.0010699C15.13 -0.0132501 15.4622 0.116649 15.7136 0.362514C15.9651 0.608379 16.1154 0.950325 16.1321 1.31398C16.1476 1.6772 16.0276 2.03218 15.7984 2.30101C15.5692 2.56985 15.2494 2.73058 14.9093 2.74793C14.8733 2.75362 14.8267 2.74793 14.7747 2.74793C14.7533 2.75362 14.7213 2.75362 14.7 2.77925C14.6253 2.89887 14.8867 2.8832 14.6933 3.4058C14.6933 3.4058 14.6933 3.45992 14.6773 3.51545C14.6613 3.71481 14.5707 4.31573 14.5493 4.64467C14.588 4.70163 14.6027 4.71587 14.588 4.82978C14.5587 5.08505 14.5187 5.33878 14.468 5.59019C14.4146 5.78955 14.34 5.83796 14.272 5.87783C14.1746 6.30218 14.1453 6.6539 13.8973 7.16653C13.868 7.55955 13.8373 7.66493 13.756 7.85574C13.7333 8.42533 13.7693 8.51077 13.3813 9.42354C13.2746 9.85074 13.3586 10.1455 13.4479 10.5926C13.5386 11.0497 13.816 11.2491 13.8453 11.7218C13.912 12.8197 13.868 13.5801 13.6279 14.4374L13.808 14.9329C14.048 15.0525 14.632 15.3971 14.288 15.8941C14.7453 16.1647 15.4414 16.4552 15.9947 17.0062C16.2294 17.2156 16.4614 17.4548 16.6787 17.7182C17.1001 17.7994 17.0468 17.8321 17.3534 18.0472C18.2535 18.6709 19.6855 19.904 20.5176 20.7613C20.6669 20.8567 20.7136 20.9208 20.8323 20.9934C20.8456 21.0261 20.8549 21.0418 20.8456 21.0503C20.8109 21.1529 20.8109 21.1529 20.7656 21.2497C20.8176 21.3067 20.8923 21.3536 20.9443 21.4021C20.9976 21.4092 20.9976 21.3935 21.0723 21.3779C21.1776 21.4818 21.3123 21.5701 21.3576 21.5701C21.499 21.5388 21.4696 21.563 21.6043 21.4277C21.643 21.3779 21.7163 21.4277 21.7163 21.4277C21.7696 21.3707 21.867 21.2582 22.0016 21.1771C22.107 21.113 22.3083 21.113 22.3083 21.113C22.3777 21.1215 22.3617 21.1856 22.347 21.2169C22.271 21.2497 22.107 21.2981 22.0176 21.3707C21.815 21.5701 21.6496 21.8734 21.6496 21.8734C22.0483 21.8264 22.295 21.9375 22.6083 21.9061C22.7897 21.899 22.9243 21.9147 23.111 21.778C23.111 21.778 23.2977 21.6413 23.4644 21.5786C23.6217 21.5074 23.7711 21.5544 23.9044 21.6669C23.9964 21.7865 24.0631 21.7865 23.9044 21.946C23.8457 22.0101 23.7711 22.0827 23.6644 22.1881C23.487 22.3632 23.247 22.6025 22.9977 22.8033C22.7779 22.9772 22.5425 23.1274 22.295 23.2518C21.8443 23.5793 21.9483 23.4996 21.5976 23.8129C21.5576 23.8442 21.4323 23.9239 21.3803 23.9638C21.2376 24.0521 21.2003 23.9723 21.1176 23.7958C21.1176 23.7958 21.0803 23.7317 21.0109 23.5964C20.9443 23.444 20.8909 23.2689 20.9149 23.2689C20.8323 23.2589 20.4736 22.779 20.4736 22.6851C20.3896 22.6666 20.0682 22.3148 20.0602 22.2436L19.7749 21.9873C19.4375 22.05 19.3615 21.8264 18.4935 21.1215C18.3868 21.113 18.2308 21.0503 18.0135 20.8738C17.6161 20.5135 16.6707 19.7132 16.5147 19.6164C16.3414 19.521 16.1401 19.4256 16.0041 19.3117C15.8094 19.2803 15.7134 19.2405 15.6067 19.2162C15.5 19.1849 15.42 19.1351 15.172 19.1038C14.768 19.0397 14.348 18.8474 13.9573 18.6239C13.7706 18.5199 13.6053 18.4715 13.4479 18.3832C13.0879 18.2066 12.7732 18.0472 12.5332 17.9845C12.2677 17.9163 12.0127 17.808 11.7759 17.6627C11.6945 17.6143 11.6492 17.5772 11.5972 17.5587C11.4772 17.5274 11.3932 17.5673 11.3412 17.5901C11.0345 17.7439 10.7572 17.8791 10.4931 18.0315C10.2531 18.1597 10.0291 18.2964 9.78912 18.4388C9.55605 18.5687 9.31854 18.6893 9.07709 18.8004C9.07709 18.8004 8.36506 19.1607 7.96771 19.296C7.62102 19.5765 6.91833 20.0735 6.49164 20.3141C6.28097 20.4181 5.86895 20.673 5.68094 20.7299C5.57427 20.8168 5.18625 21.0973 4.88624 21.3294C4.64623 21.506 4.47289 21.6584 4.47289 21.6584C4.33155 21.778 4.33822 21.8435 4.09954 21.7225C4.03949 21.7646 3.98162 21.8103 3.9262 21.8592C3.73952 21.9944 3.73152 21.9631 3.65685 21.9546C3.52218 22.0685 3.50618 22.0115 3.39418 22.1397C3.31284 22.2593 3.39418 22.2265 3.23684 22.2906C3.1995 22.2992 3.1835 22.3476 3.16083 22.3704C3.03549 22.4743 3.02749 22.7876 2.72748 22.8033C2.54747 22.9314 2.58481 23.0923 2.4648 23.0752C2.4648 23.2205 2.22479 23.4028 2.17946 23.4028C1.79011 23.5395 1.77411 23.2347 1.31809 23.4526C1.25808 23.4754 1.16741 23.5551 1.05541 23.5722C0.852734 23.6035 0.612724 23.5637 0.463384 23.427C0.295455 23.2596 0.149262 23.069 0.0286986 22.8602C-0.0393043 22.6751 0.00603076 22.564 0.246041 22.3875C0.343379 22.3234 0.358046 22.275 0.523386 22.2678C0.60339 22.2337 0.583389 22.2821 0.723395 22.2337C0.808732 22.2109 0.808732 22.2265 0.980739 22.2265C1.01807 22.2023 1.07008 22.1952 1.14608 22.1625C1.27942 22.114 1.40742 22.0742 1.40742 22.0742C1.40742 22.0742 1.44476 22.0414 1.57276 22.0599C1.67677 22.0101 1.79811 21.946 1.85811 21.9218C1.84211 21.7452 1.86478 21.7452 1.93811 21.674C2.04479 21.5858 2.05812 21.6028 2.13546 21.6598C2.16479 21.6498 2.18746 21.6413 2.17146 21.61C2.15812 21.506 2.09012 21.4576 2.11145 21.2582C2.08212 21.1771 2.03012 21.0745 2.04479 21.0105C2.05812 20.9464 2.08212 20.9122 2.11946 20.898C2.15812 20.8809 2.17946 20.9065 2.19546 20.9293C2.23279 20.9777 2.26213 21.1215 2.26213 21.1215C2.27013 21.2896 2.31546 21.4918 2.4648 21.3779C2.55414 21.2896 2.57681 21.0332 2.75015 21.0888L2.87815 21.2098C2.99016 21.1059 2.99016 21.1059 3.06483 21.0575C3.06483 21.0575 2.95816 20.9535 3.04883 20.8652C3.10883 20.8097 3.19283 20.7698 3.32617 20.616C3.69419 20.2002 3.88886 20.018 4.27821 19.6805C4.9697 19.1215 5.73259 18.6713 6.54365 18.3433C6.73832 18.0956 6.91699 17.9361 7.32368 17.9105C7.82637 17.0475 8.77041 16.2928 8.98775 16.1732C9.16642 15.8457 9.24109 15.877 9.47444 15.8215C9.65445 15.6691 9.70778 15.6691 9.78112 15.5168C9.86512 15.1892 9.63178 14.2921 10.2918 14.2679C10.4411 14.06 10.3958 14.1084 10.5532 13.9148C10.4747 13.6849 10.4219 13.4459 10.3958 13.2028C10.3891 13.18 10.1345 12.9792 10.2225 12.73C10.0827 12.5395 9.96287 12.3332 9.86512 12.1149C9.83645 12.114 9.80809 12.1082 9.78112 12.0978C9.75178 12.0907 9.70778 12.0907 9.66111 12.0907C9.55711 12.3698 9.44377 12.3868 9.2571 12.4509C8.91041 13.18 8.79041 13.4919 7.86237 14.0771C7.48902 14.5015 7.35301 14.9885 7.35301 14.9799C7.29642 15.1253 7.29074 15.2875 7.33701 15.437C7.27701 15.5894 7.30101 15.6136 7.30101 15.6136C7.31434 15.6777 7.37568 15.7645 7.44235 15.7731C7.54769 15.8058 7.66769 15.8058 7.65303 15.9411C7.63836 16.102 7.43568 16.0693 7.33701 16.045C6.97033 15.9738 7.09033 15.7175 6.85032 15.7973C6.66232 15.9183 6.58898 16.2928 6.29563 16.2387C6.2583 16.206 6.27297 16.1333 6.30364 16.0693C6.34097 15.9838 6.41564 15.9012 6.3783 15.8699C6.18363 15.9269 5.80095 16.045 5.80095 16.045C5.62094 16.102 5.42626 15.9895 5.60494 15.8685C5.68894 15.8371 5.80895 15.7973 5.95829 15.7004C5.95829 15.7004 6.04096 15.5979 5.88228 15.6449C5.70265 15.7025 5.51461 15.7242 5.32759 15.709C5.32759 15.709 4.98491 15.6535 4.93824 15.6292C4.90091 15.5979 4.85691 15.4769 4.96091 15.4868C5.21363 15.4827 5.46524 15.4502 5.71161 15.39C5.83828 15.3402 6.08496 15.1907 6.22096 15.1252C6.22096 15.1252 6.37164 14.9016 6.46098 14.8546C6.60365 14.6923 6.71432 14.5983 6.83432 14.4288C6.95433 14.1725 7.09034 13.7738 7.50102 13.1387C7.70918 12.8072 7.94818 12.499 8.21438 12.2188C8.21438 12.2188 8.29705 11.7375 8.67174 11.4029C8.75574 11.2035 8.88108 10.9614 9.01708 10.745C9.06852 10.6683 9.11572 10.5884 9.15842 10.5058C9.27843 10.3206 9.40644 9.96893 9.84912 9.92194C9.84912 9.92194 10.0451 9.77669 10.1118 9.67274C10.2238 9.56879 10.2105 9.40788 10.2985 9.30393C10.1571 9.15299 9.81179 8.86392 9.78912 8.48799C9.77454 8.30591 9.79876 8.12267 9.85995 7.95201C9.92115 7.78135 10.0177 7.6277 10.1425 7.50259C10.4038 7.23916 10.6732 7.111 11.0038 7.13521C11.4159 7.21353 11.4919 7.35877 11.6105 7.50259C11.7305 7.64642 11.7839 7.55955 11.8279 7.71049C12.1732 7.81445 12.1586 7.77457 12.1439 8.04655C12.2039 8.12772 12.2852 8.20034 12.2772 8.35128C12.3906 8.10209 12.4212 8.0551 12.7359 7.78312C12.8186 7.55955 12.8692 7.33456 12.9359 7.10246C13.0053 6.89455 13.0879 6.67811 13.1413 6.51862C13.0879 6.05441 13.2213 5.98178 13.4026 5.5731C13.3733 5.51757 13.3813 5.5019 13.3946 5.41362C13.4706 5.14021 13.5759 4.79703 13.6426 4.56492C13.6426 4.56492 13.6653 4.47521 13.756 4.47521C13.836 4.18757 13.9653 3.65073 13.9946 3.53111C14.0773 3.23493 14.0333 3.12243 13.9813 2.94728C13.9653 2.89032 13.9733 2.81913 13.9413 2.75362C13.8494 2.56281 13.7649 2.36804 13.688 2.16979C13.6506 2.06584 13.5813 1.6657 13.5813 1.6657C13.5759 1.57742 13.5759 1.53754 13.5759 1.53754Z" fill="black"/>
</svg>
